<?xml version="1.0" encoding="UTF-8" standalone="no"?><svg xmlns="http://www.w3.org/2000/svg" xmlns:xlink="http://www.w3.org/1999/xlink" contentScriptType="application/ecmascript" contentStyleType="text/css" height="330px" preserveAspectRatio="none" style="width:511px;height:330px;" version="1.1" viewBox="0 0 511 330" width="511px" zoomAndPan="magnify"><defs/><g><line style="stroke:#383838;stroke-width:1.0;stroke-dasharray:5.0,5.0;" x1="23" x2="23" y1="84.4883" y2="247.7305"/><line style="stroke:#383838;stroke-width:1.0;stroke-dasharray:5.0,5.0;" x1="198" x2="198" y1="84.4883" y2="247.7305"/><text fill="#000000" font-family="sans-serif" font-size="14" lengthAdjust="spacing" textLength="31" x="5" y="81.5352">User</text><ellipse cx="23.5" cy="15" fill="#F8F8F8" rx="8" ry="8" style="stroke:#383838;stroke-width:2.0;"/><path d="M23.5,23 L23.5,50 M10.5,31 L36.5,31 M23.5,50 L10.5,65 M23.5,50 L36.5,65 " fill="none" style="stroke:#383838;stroke-width:2.0;"/><text fill="#000000" font-family="sans-serif" font-size="14" lengthAdjust="spacing" textLength="31" x="5" y="260.2656">User</text><ellipse cx="23.5" cy="273.2188" fill="#F8F8F8" rx="8" ry="8" style="stroke:#383838;stroke-width:2.0;"/><path d="M23.5,281.2188 L23.5,308.2188 M10.5,289.2188 L36.5,289.2188 M23.5,308.2188 L10.5,323.2188 M23.5,308.2188 L36.5,323.2188 " fill="none" style="stroke:#383838;stroke-width:2.0;"/><rect fill="#F8F8F8" height="30.4883" style="stroke:#383838;stroke-width:1.5;" width="69" x="164" y="53"/><text fill="#000000" font-family="sans-serif" font-size="14" lengthAdjust="spacing" textLength="55" x="171" y="73.5352">Browser</text><rect fill="#F8F8F8" height="30.4883" style="stroke:#383838;stroke-width:1.5;" width="69" x="164" y="246.7305"/><text fill="#000000" font-family="sans-serif" font-size="14" lengthAdjust="spacing" textLength="55" x="171" y="267.2656">Browser</text><polygon fill="#383838" points="186.5,111.7988,196.5,115.7988,186.5,119.7988,190.5,115.7988" style="stroke:#383838;stroke-width:1.0;"/><line style="stroke:#383838;stroke-width:1.0;" x1="23.5" x2="192.5" y1="115.7988" y2="115.7988"/><text fill="#000000" font-family="sans-serif" font-size="13" lengthAdjust="spacing" textLength="65" x="30.5" y="111.0566">文字を入力</text><line style="stroke:#383838;stroke-width:1.0;" x1="198.5" x2="240.5" y1="145.1094" y2="145.1094"/><line style="stroke:#383838;stroke-width:1.0;" x1="240.5" x2="240.5" y1="145.1094" y2="158.1094"/><line style="stroke:#383838;stroke-width:1.0;" x1="199.5" x2="240.5" y1="158.1094" y2="158.1094"/><polygon fill="#383838" points="209.5,154.1094,199.5,158.1094,209.5,162.1094,205.5,158.1094" style="stroke:#383838;stroke-width:1.0;"/><text fill="#000000" font-family="sans-serif" font-size="13" lengthAdjust="spacing" textLength="221" x="205.5" y="140.3672">シンタックスハイライトの処理を行う</text><line style="stroke:#383838;stroke-width:1.0;" x1="198.5" x2="240.5" y1="187.4199" y2="187.4199"/><line style="stroke:#383838;stroke-width:1.0;" x1="240.5" x2="240.5" y1="187.4199" y2="200.4199"/><line style="stroke:#383838;stroke-width:1.0;" x1="199.5" x2="240.5" y1="200.4199" y2="200.4199"/><polygon fill="#383838" points="209.5,196.4199,199.5,200.4199,209.5,204.4199,205.5,200.4199" style="stroke:#383838;stroke-width:1.0;"/><text fill="#000000" font-family="sans-serif" font-size="13" lengthAdjust="spacing" textLength="299" x="205.5" y="182.6777">シンタックスハイライトの結果を内部モデルに反映</text><polygon fill="#383838" points="34.5,225.7305,24.5,229.7305,34.5,233.7305,30.5,229.7305" style="stroke:#383838;stroke-width:1.0;"/><line style="stroke:#383838;stroke-width:1.0;stroke-dasharray:2.0,2.0;" x1="28.5" x2="197.5" y1="229.7305" y2="229.7305"/><text fill="#000000" font-family="sans-serif" font-size="13" lengthAdjust="spacing" textLength="151" x="40.5" y="224.9883">Reactによるレンダリング</text><!--MD5=[c41ab5eec5b12f45239794efbe6e20c8]
@startuml
skinparam monochrome true
skinparam shadowing false


Actor User
participant Browser

User -> Browser: 文字を入力

Browser -> Browser: シンタックスハイライトの処理を行う

Browser -> Browser: シンタックスハイライトの結果を内部モデルに反映

Browser - -> User: Reactによるレンダリング

@enduml

PlantUML version 1.2021.01(Tue Feb 02 16:55:08 JST 2021)
(GPL source distribution)
Java Runtime: OpenJDK Runtime Environment
JVM: OpenJDK 64-Bit Server VM
Default Encoding: UTF-8
Language: ja
Country: JP
--></g></svg>